<svg xmlns="http://www.w3.org/2000/svg" viewBox="0 0 107.06 83.25"><defs><style>.cls-1{fill:#c6dc67;}.cls-2{fill:#84c559;}.cls-3{fill:#8bac3e;}</style></defs><g id="Layer_2" data-name="Layer 2"><g id="Layer_1-2" data-name="Layer 1"><path class="cls-1" d="M53.12,76.18c-2.87-7.24-1.41-14.44.7-21.44a106.66,106.66,0,0,1,27-45.43C84.66,5.5,88.9,2.16,94.22.55c5.48-1.66,9.23.44,10.6,6,1.21,5,.65,9.9-.63,14.71C98.73,41.82,89.83,59.62,73.71,73.76c-.84.74-2.28,1.71-3.19,2.37a23.24,23.24,0,0,1-3.23.09C62.57,76.25,57.84,76.2,53.12,76.18Z"/><path class="cls-2" d="M58.21,76.17q22.87,0,45.74,0h.57a3.21,3.21,0,0,1,2.54,3.49,3.56,3.56,0,0,1-2.49,3.56c-.22,0-.43,0-.65,0H2.86l-.81,0a5.81,5.81,0,0,1-2-3.54,4.48,4.48,0,0,1,2.06-3.44c.2,0,.5,0,.72,0H45.86"/><path class="cls-3" d="M48.49,76.17l-16.81,0C24.61,71.19,17.87,65.81,12.5,59A128.55,128.55,0,0,1,3.2,45a16.09,16.09,0,0,1-1.76-6.2C1,35.15,3.09,32.73,6.58,33.49a37,37,0,0,1,11.29,4.27A79.88,79.88,0,0,1,44.28,64.27,25.76,25.76,0,0,1,48.49,76.17Z"/></g></g></svg>