<svg xmlns="http://www.w3.org/2000/svg" viewBox="0 0 581.42 101.1"><defs><style>.cls-1{fill:#eef5f2;}</style></defs><g id="Layer_2" data-name="Layer 2"><g id="Layer_1-2" data-name="Layer 1"><path class="cls-1" d="M62.73,92.37c-3.48-8.79-1.71-17.51.85-26A129.33,129.33,0,0,1,96.33,11.29C101,6.67,106.12,2.62,112.57.67c6.64-2,11.19.53,12.84,7.29,1.47,6,.79,12-.76,17.82C118,50.7,107.25,72.29,87.7,89.43c-1,.9-2.77,2.08-3.87,2.88a27,27,0,0,1-3.92.1C74.19,92.44,68.46,92.39,62.73,92.37Z"/><path class="cls-1" d="M324.5,92.51q124.28.06,248.55,0c1,0,2.08,0,3.12,0,3-.09,5.26,1.07,5.25,4.31,0,3-2.21,4.17-5,4.23-1.17,0-2.34,0-3.5,0H23.68c-1.42,0-2.54-.14-4.2-.2-1.83-.07-3.47-2.53-3.77-4.12-.47-2.42,1.46-4,4-4.2,1.16-.1,2.33,0,3.5,0H257.39c1.81,0,3.63-.07,5.44-.11l25.07.06h6.91c7.05,0,14.09.1,21.13.06"/><path class="cls-1" d="M57.12,92.36l-20.39,0C28.16,86.32,20,79.8,13.49,71.58a154.75,154.75,0,0,1-11.28-17A19.51,19.51,0,0,1,.07,47c-.53-4.4,2-7.33,6.23-6.41A44.46,44.46,0,0,1,20,45.78,96.94,96.94,0,0,1,52,77.92,31.27,31.27,0,0,1,57.12,92.36Z"/><path class="cls-1" d="M403.7,71.09c2.56,0,5-.1,7.37.06a2.71,2.71,0,0,1,1.81,1.31,5.34,5.34,0,0,0,5.13,3c5.27,0,10.54.05,15.81,0,3.33,0,5.41-1.95,5.29-4.58s-2-4.09-5.34-4.11c-5.48,0-11,0-16.44,0-8,0-13.8-5.65-13.89-13.33S409.13,39.89,417,39.75q8.85-.15,17.71,0c7.91.14,13.79,6,13.38,13.72-2.54,0-5.13.07-7.7-.07-.5,0-1.16-.79-1.4-1.36-1-2.55-3-3.29-5.56-3.26-5,0-9.91,0-14.87,0-3.79,0-6,1.78-5.9,4.61.1,2.66,2.13,4.12,6,4.15,5.48,0,11-.11,16.44.06a13.31,13.31,0,0,1,13.23,12,13.12,13.12,0,0,1-10.14,14.4,34.63,34.63,0,0,1-7.22.38c-4.95,0-9.91.08-14.86,0C409.08,84.31,403.61,78.63,403.7,71.09Z"/><path class="cls-1" d="M171.26,53.49c-2.5,0-4.82.12-7.1-.07a2.86,2.86,0,0,1-2-1.46,5.06,5.06,0,0,0-5-3.16c-5.48,0-11-.06-16.44,0-2.89.05-4.84,1.91-4.9,4.33s1.81,4.28,4.81,4.34c5.9.13,11.81-.07,17.7.12A13.44,13.44,0,0,1,161.62,84a10.69,10.69,0,0,1-2.8.39c-6.54,0-13.07.1-19.61,0a12.64,12.64,0,0,1-12.33-13.34c2.45,0,4.94-.07,7.41,0a2.3,2.3,0,0,1,1.65,1.09c1.26,2.77,3.52,3.32,6.25,3.28,4.74-.08,9.49,0,14.23,0,3.67,0,5.81-1.65,5.86-4.35s-2-4.36-5.72-4.37c-5.38,0-10.76,0-16.13,0-8-.06-13.78-5.71-13.83-13.39s5.72-13.48,13.64-13.61c5.9-.09,11.8-.1,17.7,0C165.84,39.9,171.77,45.87,171.26,53.49Z"/><path class="cls-1" d="M548.9,57.4a66.59,66.59,0,0,1-.11,7.56c-.08.64-1.47,1.59-2.29,1.62-4.41.16-8.84.16-13.27,0-2.08-.05-3,.45-3,2.78.19,7.3-.7,6,6,6.07,8.64.07,17.28,0,25.92,0h3.59v8.7H521.5c-.08-.88-.23-1.69-.23-2.51,0-13,0-25.92,0-38.88,0-1.82.19-2.94,2.49-2.92,13.49.08,27,0,40.46.06a12.19,12.19,0,0,1,1.5.21v8.67c-1.14.06-2.25.16-3.36.16-9.59,0-19.18.07-28.76,0-2.32,0-3.43.39-3.32,3.08.26,6.37-.6,5.28,5.4,5.36C539.94,57.45,544.23,57.4,548.9,57.4Z"/><path class="cls-1" d="M238.44,71.2v13h-9.19V40.36c.26-.21.42-.44.58-.44,10.1-.06,20.22-.48,30.29,0C266.33,40.22,271,44,273,50.05s.92,12-3.86,16.55c-1.68,1.62-1.91,2.79-.92,4.8,2,4.12,3.78,8.36,5.87,13-3.35,0-6.08.17-8.76-.1a3.84,3.84,0,0,1-2.33-2c-1.49-3-2.69-6.17-4.14-9.21-.35-.75-1.19-1.78-1.83-1.8C251,71.15,244.89,71.2,238.44,71.2Zm.18-9.45c6.6,0,12.8,0,19,0,4,0,6.72-2.26,7.06-5.74a6.55,6.55,0,0,0-6.05-7.2c-6.58-.34-13.2-.09-20-.09Z"/><path class="cls-1" d="M374.23,60h21.83c2.1,11.68-.27,21.43-11.31,23.77-6.82,1.45-14.31,1-21.3,0S352,76.28,351.86,69.17q-.09-7,0-13.91a15.67,15.67,0,0,1,15.22-15.5c4.74-.14,9.49-.16,14.22,0a15.61,15.61,0,0,1,15.12,15.74h-8.7c-.91-6.09-5.18-6.89-10.28-6.56-3.25.21-6.53,0-9.8.06-3.87.06-6.45,2.27-6.64,6.15-.23,4.62-.2,9.27,0,13.9.14,3.45,2.21,5.89,5.68,6.12a108.85,108.85,0,0,0,15.11,0c3.45-.24,4.86-2.12,5.43-5.91h-13Z"/><path class="cls-1" d="M308.56,50.62c-.09,1.82-.18,2.94-.18,4.05,0,8.84-.11,17.69.06,26.53.05,2.7-.84,3.55-3.42,3.29a55.09,55.09,0,0,0-5.64,0c-.11-1.08-.27-2-.27-2.88,0-12.84.06-25.69-.07-38.53,0-2.57.84-3.12,3.25-3.2a18.51,18.51,0,0,1,11,2.86c5.87,3.7,12,7,18,10.43.88.51,1.81.94,3.27,1.69V40.17h9.21V84.26h-9c0-5-.17-10.06.07-15.05.12-2.71-.86-4.15-3.18-5.42C324.14,59.65,316.71,55.28,308.56,50.62Z"/><path class="cls-1" d="M188.24,71.2V84.26h-8.92c-.08-1.06-.19-2-.2-2.91,0-12.74,0-25.48-.05-38.21,0-2.39.53-3.33,3.13-3.28,8.42.16,16.84,0,25.26.09,7.51.11,13,3.83,15.32,10.06a15.71,15.71,0,0,1-4.29,17.3,15.18,15.18,0,0,1-10.39,3.9C201.6,71.17,195.09,71.2,188.24,71.2Zm0-22c0,3.85-.1,7.41.08,10.95a2.65,2.65,0,0,0,1.84,1.79c6.21.11,12.43.17,18.64,0a6,6,0,0,0,5.72-6c.13-3.17-2.08-6.46-5.17-6.58C202.46,49,195.53,49.17,188.25,49.17Z"/><path class="cls-1" d="M497.83,84.29h-9.25c-.06-1.2-.15-2.32-.16-3.43q0-13.92,0-27.82c0-4,0-4-4.18-4-3.68,0-7.37-.06-11.06,0-1.72,0-2.38-.51-2.47-2.33-.33-6.82-.4-6.82,6.5-6.82,11.69,0,23.38.07,35.08,0,2.54,0,3.39.79,3.15,3.25-.17,1.85,0,3.72,0,5.89H497.83Z"/><path class="cls-1" d="M456.15,40.11a5.88,5.88,0,0,1,1.08-.35c7.93-.65,7.93-.65,7.93,7.18,0,11.37-.1,22.75.07,34.12,0,2.87-.89,3.75-3.6,3.45a49.65,49.65,0,0,0-5.48,0Z"/><path class="cls-1" d="M290.71,84.43c-2.56,0-5,.14-7.33-.09-.59-.06-1.53-1.32-1.54-2-.09-13.46,0-26.92-.09-40.38,0-1.61.56-2.28,2.21-2.22,2.18.09,4.37,0,6.75,0Z"/></g></g></svg>