<svg xmlns="http://www.w3.org/2000/svg" viewBox="0 0 479.54 83.38"><defs><style>.cls-1{fill:#c6dc67;}.cls-2{fill:#84c559;}.cls-3{fill:#8bac3e;}.cls-4{fill:#f68c4b;}.cls-5{fill:#ec8646;}</style></defs><g id="Layer_2" data-name="Layer 2"><g id="Layer_1-2" data-name="Layer 1"><path class="cls-1" d="M51.74,76.18c-2.87-7.24-1.41-14.44.7-21.44a106.66,106.66,0,0,1,27-45.43C83.28,5.5,87.52,2.16,92.84.55c5.48-1.66,9.23.44,10.6,6,1.21,5,.65,9.9-.63,14.71C97.35,41.82,88.45,59.62,72.33,73.76c-.84.74-2.28,1.71-3.19,2.37a23.24,23.24,0,0,1-3.23.09C61.19,76.25,56.46,76.2,51.74,76.18Z"/><path class="cls-2" d="M267.64,76.3q102.5,0,205,0c.85,0,1.71,0,2.56,0,2.5-.07,4.35.88,4.34,3.56,0,2.5-1.82,3.43-4.14,3.49-1,0-1.92,0-2.88,0h-453c-1.17,0-2.1-.12-3.47-.17S13.21,81.13,13,79.82c-.38-2,1.21-3.28,3.32-3.47,1-.09,1.93,0,2.89,0H212.29c1.49,0,3,0,4.48-.08l20.68,0,5.7,0c5.81,0,11.62.07,17.43,0"/><path class="cls-3" d="M47.11,76.17l-16.81,0C23.23,71.19,16.49,65.81,11.12,59A128.55,128.55,0,0,1,1.82,45a16.09,16.09,0,0,1-1.76-6.2c-.44-3.63,1.65-6.05,5.14-5.29a36.9,36.9,0,0,1,11.29,4.27A79.88,79.88,0,0,1,42.9,64.27,25.76,25.76,0,0,1,47.11,76.17Z"/><path class="cls-4" d="M333,58.63c2.11,0,4.1-.08,6.08,0a2.21,2.21,0,0,1,1.49,1.09,4.4,4.4,0,0,0,4.24,2.49c4.34,0,8.69,0,13,0,2.74,0,4.45-1.61,4.36-3.78s-1.69-3.38-4.41-3.39c-4.52,0-9,0-13.56,0-6.58,0-11.38-4.66-11.45-11A11,11,0,0,1,344,32.79q7.31-.13,14.61,0c6.52.11,11.37,5,11,11.31-2.1,0-4.23.06-6.36-.05-.41,0-.95-.66-1.15-1.13-.86-2.1-2.48-2.71-4.59-2.69-4.08.05-8.17,0-12.26,0-3.13,0-4.95,1.47-4.86,3.8s1.75,3.4,4.93,3.42c4.53,0,9.05-.09,13.57.05a11,11,0,0,1,10.91,9.93,10.83,10.83,0,0,1-8.36,11.88,28.14,28.14,0,0,1-6,.31c-4.09,0-8.18.07-12.26,0C337.4,69.54,332.89,64.85,333,58.63Z"/><path class="cls-4" d="M141.25,44.12c-2.06,0-4,.1-5.86-.06a2.37,2.37,0,0,1-1.63-1.2,4.16,4.16,0,0,0-4.12-2.61c-4.52,0-9,0-13.56,0a3.8,3.8,0,0,0-4,3.58c0,2,1.5,3.52,4,3.58,4.87.1,9.74-.06,14.6.09a11.08,11.08,0,0,1,2.7,21.79,9.08,9.08,0,0,1-2.31.33c-5.39,0-10.78.08-16.17,0a10.42,10.42,0,0,1-10.17-11c2,0,4.07-.05,6.11,0a1.88,1.88,0,0,1,1.36.9c1,2.28,2.9,2.73,5.15,2.7,3.92-.06,7.83,0,11.74,0,3,0,4.79-1.36,4.83-3.58s-1.66-3.6-4.72-3.61c-4.43,0-8.86,0-13.3,0-6.56,0-11.36-4.71-11.41-11s4.72-11.12,11.25-11.22c4.87-.08,9.74-.09,14.61,0C136.78,32.91,141.67,37.83,141.25,44.12Z"/><path class="cls-4" d="M452.72,47.34a57.72,57.72,0,0,1-.09,6.24c-.07.53-1.21,1.31-1.89,1.33-3.64.14-7.3.14-10.94,0-1.72-.05-2.5.37-2.45,2.29.16,6-.57,5,4.94,5,7.12.06,14.25,0,21.37,0h3v7.18h-36.5c-.07-.72-.19-1.4-.19-2.08,0-10.68,0-21.37,0-32.06,0-1.5.16-2.42,2.06-2.41,11.12.07,22.24,0,33.37,0a8.64,8.64,0,0,1,1.23.18v7.15c-.93,0-1.85.13-2.77.13-7.9,0-15.81.06-23.72,0-1.91,0-2.82.33-2.73,2.54.21,5.26-.5,4.36,4.45,4.42C445.33,47.38,448.87,47.34,452.72,47.34Z"/><path class="cls-4" d="M196.66,58.72V69.48h-7.58V33.29c.22-.17.35-.37.48-.37,8.33-.05,16.67-.39,25,0,5.12.24,9,3.36,10.63,8.35s.76,9.86-3.18,13.65c-1.39,1.34-1.58,2.3-.76,4,1.66,3.4,3.12,6.9,4.84,10.75-2.76,0-5,.14-7.23-.08a3.14,3.14,0,0,1-1.91-1.69c-1.23-2.49-2.23-5.09-3.42-7.6-.29-.61-1-1.47-1.51-1.48C207,58.68,202,58.72,196.66,58.72Zm.14-7.79c5.45,0,10.57,0,15.68,0,3.32,0,5.55-1.87,5.83-4.73a5.41,5.41,0,0,0-5-5.94c-5.43-.28-10.89-.08-16.52-.08Z"/><path class="cls-4" d="M308.65,49.46h18c1.73,9.63-.22,17.68-9.33,19.61-5.63,1.19-11.8.83-17.57,0s-9.47-6.18-9.55-12q-.07-5.74,0-11.47a12.92,12.92,0,0,1,12.55-12.79c3.91-.11,7.82-.13,11.73,0a12.88,12.88,0,0,1,12.47,13h-7.18c-.75-5-4.27-5.68-8.48-5.41-2.68.18-5.39,0-8.08.05-3.19,0-5.32,1.88-5.48,5.07-.19,3.82-.16,7.65,0,11.46.11,2.86,1.82,4.86,4.68,5.06a91,91,0,0,0,12.47,0c2.84-.2,4-1.75,4.47-4.87h-10.7Z"/><path class="cls-4" d="M254.49,41.75c-.07,1.5-.14,2.42-.15,3.34,0,7.29-.09,14.59,0,21.88,0,2.23-.69,2.93-2.81,2.71-1.46-.15-2.94,0-4.66,0-.09-.89-.22-1.63-.22-2.37,0-10.6.05-21.19-.06-31.78,0-2.12.7-2.57,2.68-2.64a15.22,15.22,0,0,1,9.1,2.36c4.84,3.05,9.9,5.76,14.88,8.6.73.42,1.49.77,2.7,1.39V33.13h7.59V69.5h-7.46c0-4.16-.14-8.3.06-12.42a4.27,4.27,0,0,0-2.62-4.47C267.34,49.2,261.21,45.6,254.49,41.75Z"/><path class="cls-4" d="M155.26,58.72V69.5h-7.37c-.06-.88-.15-1.64-.15-2.4,0-10.51,0-21-.05-31.52,0-2,.44-2.75,2.58-2.71,6.94.13,13.89,0,20.84.08,6.19.09,10.73,3.16,12.63,8.3a13,13,0,0,1-3.53,14.27,12.55,12.55,0,0,1-8.57,3.21C166.27,58.7,160.91,58.72,155.26,58.72Zm0-18.17c0,3.18-.08,6.11.07,9a2.18,2.18,0,0,0,1.52,1.48c5.12.1,10.25.14,15.37,0a4.92,4.92,0,0,0,4.72-5c.11-2.62-1.72-5.33-4.26-5.43C167,40.4,161.27,40.55,155.26,40.55Z"/><path class="cls-5" d="M410.59,69.52H403c-.05-1-.13-1.91-.13-2.83q0-11.47,0-22.94c0-3.32,0-3.32-3.44-3.33-3,0-6.08-.05-9.12,0-1.42,0-2-.42-2-1.91-.28-5.63-.33-5.63,5.36-5.63,9.64,0,19.29.06,28.93,0,2.09,0,2.8.65,2.6,2.68-.14,1.52,0,3.07,0,4.86h-14.5Z"/><path class="cls-5" d="M376.22,33.08a5.5,5.5,0,0,1,.89-.29c6.54-.54,6.54-.53,6.54,5.93,0,9.38-.08,18.76.06,28.13,0,2.38-.73,3.1-3,2.85a42.27,42.27,0,0,0-4.52,0Z"/><path class="cls-4" d="M239.77,69.64c-2.11,0-4.09.11-6-.08-.5,0-1.27-1.09-1.28-1.67-.07-11.1,0-22.21-.07-33.31,0-1.33.47-1.88,1.82-1.83,1.8.08,3.6,0,5.57,0Z"/></g></g></svg>