<svg xmlns="http://www.w3.org/2000/svg" viewBox="0 0 581.42 100.47"><defs><style>.cls-1{fill:#33cb56;}.cls-2{fill:#38a611;}.cls-3{fill:#eb8063;}.cls-4{fill:#da603b;}.cls-5{fill:#298009;}</style></defs><g id="Layer_2" data-name="Layer 2"><g id="Layer_1-2" data-name="Layer 1"><path class="cls-1" d="M62.73,92.37c-3.48-8.79-1.71-17.51.85-26A129.33,129.33,0,0,1,96.33,11.29C101,6.67,106.12,2.62,112.57.67c6.64-2,11.19.53,12.84,7.29,1.47,6,.79,12-.76,17.82C118,50.7,107.25,72.29,87.7,89.43c-1,.9-2.77,2.08-3.87,2.88a27,27,0,0,1-3.92.1C74.19,92.44,68.46,92.39,62.73,92.37Z"/><path class="cls-2" d="M57.12,92.43l-20.39,0c-8.57-6-16.74-12.52-23.24-20.73a155.7,155.7,0,0,1-11.28-17A19.57,19.57,0,0,1,.07,47.1c-.53-4.4,2-7.34,6.23-6.42A44.48,44.48,0,0,1,20,45.86,96.91,96.91,0,0,1,52,78C54.75,82.43,56.77,87.14,57.12,92.43Z"/><path class="cls-3" d="M403.7,70.46c2.56,0,5-.09,7.37.06a2.73,2.73,0,0,1,1.81,1.32,5.33,5.33,0,0,0,5.13,3c5.27,0,10.54,0,15.81,0,3.33,0,5.41-2,5.29-4.59s-2-4.09-5.34-4.11c-5.48,0-11,0-16.44,0-8-.05-13.8-5.65-13.89-13.33S409.13,39.26,417,39.13q8.85-.16,17.71,0c7.91.13,13.79,6,13.38,13.71-2.54,0-5.13.08-7.7-.06-.5,0-1.16-.8-1.4-1.37-1-2.55-3-3.28-5.56-3.26-5,.06-9.91,0-14.87,0-3.79,0-6,1.78-5.9,4.6.1,2.66,2.13,4.12,6,4.15,5.48,0,11-.1,16.44.06a13.31,13.31,0,0,1,13.23,12,13.14,13.14,0,0,1-10.14,14.41,34.63,34.63,0,0,1-7.22.37c-4.95,0-9.91.08-14.86,0C409.08,83.68,403.61,78,403.7,70.46Z"/><path class="cls-4" d="M171.26,52.87c-2.5,0-4.82.11-7.1-.07a2.88,2.88,0,0,1-2-1.46,5.07,5.07,0,0,0-5-3.17c-5.48,0-11-.06-16.44,0-2.89,0-4.84,1.91-4.9,4.34s1.81,4.27,4.81,4.34c5.9.12,11.81-.08,17.7.11a13.44,13.44,0,0,1,3.27,26.42,10.69,10.69,0,0,1-2.8.39c-6.54,0-13.07.1-19.61,0a12.64,12.64,0,0,1-12.33-13.34c2.45,0,4.94-.06,7.41.06a2.27,2.27,0,0,1,1.65,1.09c1.26,2.77,3.52,3.31,6.25,3.27,4.74-.07,9.49,0,14.23,0,3.67,0,5.81-1.65,5.86-4.34s-2-4.36-5.72-4.38c-5.38,0-10.76,0-16.13,0-8-.05-13.78-5.71-13.83-13.38s5.72-13.49,13.64-13.62c5.9-.09,11.8-.1,17.7,0C165.84,39.27,171.77,45.25,171.26,52.87Z"/><path class="cls-3" d="M548.9,56.78a66.41,66.41,0,0,1-.11,7.55c-.08.65-1.47,1.59-2.29,1.62-4.41.17-8.84.16-13.27,0-2.08-.06-3,.45-3,2.77.19,7.31-.7,6,6,6.07,8.64.08,17.28,0,25.92,0h3.59v8.7H521.5c-.08-.87-.23-1.69-.23-2.51,0-13,0-25.91,0-38.87,0-1.83.19-2.94,2.49-2.93,13.49.09,27,0,40.46.06a12.58,12.58,0,0,1,1.5.22v8.66c-1.14.06-2.25.17-3.36.17-9.59,0-19.18.06-28.76,0-2.32,0-3.43.4-3.32,3.08.26,6.38-.6,5.28,5.4,5.36C539.94,56.82,544.23,56.78,548.9,56.78Z"/><path class="cls-4" d="M238.44,70.57v13h-9.19V39.73c.26-.21.42-.44.58-.44,10.1-.06,20.22-.48,30.29,0,6.21.29,10.85,4.07,12.89,10.12s.92,12-3.86,16.56c-1.68,1.62-1.91,2.78-.92,4.8,2,4.11,3.78,8.36,5.87,13-3.35,0-6.08.17-8.76-.09a3.87,3.87,0,0,1-2.33-2c-1.49-3-2.69-6.18-4.14-9.22-.35-.74-1.19-1.78-1.83-1.79C251,70.52,244.89,70.57,238.44,70.57Zm.18-9.45c6.6,0,12.8,0,19,0,4,0,6.72-2.26,7.06-5.74a6.54,6.54,0,0,0-6.05-7.19c-6.58-.35-13.2-.1-20-.1Z"/><path class="cls-4" d="M374.23,59.34h21.83c2.1,11.68-.27,21.43-11.31,23.78-6.82,1.44-14.31,1-21.3,0S352,75.66,351.86,68.54q-.09-7,0-13.91a15.68,15.68,0,0,1,15.22-15.5c4.74-.13,9.49-.16,14.22,0a15.62,15.62,0,0,1,15.12,15.74h-8.7c-.91-6.09-5.18-6.88-10.28-6.55-3.25.21-6.53,0-9.8.05-3.87.07-6.45,2.28-6.64,6.15-.23,4.62-.2,9.27,0,13.9.14,3.46,2.21,5.89,5.68,6.12a108.85,108.85,0,0,0,15.11,0c3.45-.25,4.86-2.13,5.43-5.91h-13Z"/><path class="cls-4" d="M308.56,50c-.09,1.83-.18,2.94-.18,4,0,8.85-.11,17.69.06,26.53.05,2.7-.84,3.56-3.42,3.29-1.76-.18-3.56,0-5.64,0-.11-1.08-.27-2-.27-2.87,0-12.85.06-25.7-.07-38.54,0-2.56.84-3.12,3.25-3.2a18.58,18.58,0,0,1,11,2.86c5.87,3.7,12,7,18,10.43.88.51,1.81.94,3.27,1.69V39.54h9.21V83.63h-9c0-5-.17-10,.07-15,.12-2.71-.86-4.14-3.18-5.41C324.14,59,316.71,54.66,308.56,50Z"/><path class="cls-4" d="M188.24,70.57V83.64h-8.92c-.08-1.07-.19-2-.2-2.92,0-12.73,0-25.47-.05-38.21,0-2.39.53-3.33,3.13-3.28,8.42.16,16.84,0,25.26.09,7.51.11,13,3.84,15.32,10.07a15.72,15.72,0,0,1-4.29,17.3,15.12,15.12,0,0,1-10.39,3.89C201.6,70.55,195.09,70.57,188.24,70.57Zm0-22c0,3.85-.1,7.41.08,11a2.63,2.63,0,0,0,1.84,1.79c6.21.12,12.43.17,18.64,0a6,6,0,0,0,5.72-6c.13-3.18-2.08-6.46-5.17-6.58C202.46,48.36,195.53,48.54,188.25,48.54Z"/><path class="cls-3" d="M497.83,83.66h-9.25c-.06-1.2-.15-2.31-.16-3.43q0-13.91,0-27.81c0-4,0-4-4.18-4-3.68,0-7.37-.06-11.06,0-1.72,0-2.38-.51-2.47-2.32-.33-6.83-.4-6.83,6.5-6.83,11.69,0,23.38.07,35.08,0,2.54,0,3.39.79,3.15,3.25-.17,1.85,0,3.73,0,5.9H497.83Z"/><path class="cls-3" d="M456.15,39.48a5.69,5.69,0,0,1,1.08-.34c7.93-.66,7.93-.66,7.93,7.18,0,11.37-.1,22.74.07,34.11,0,2.88-.89,3.75-3.6,3.45a52.24,52.24,0,0,0-5.48,0Z"/><path class="cls-4" d="M290.71,83.81c-2.56,0-5,.14-7.33-.1-.59-.06-1.53-1.32-1.54-2-.09-13.46,0-26.92-.09-40.37,0-1.62.56-2.29,2.21-2.22,2.18.09,4.37,0,6.75,0Z"/><path class="cls-5" d="M324.5,91.89q124.28,0,248.55,0c1,0,2.08,0,3.12,0,3-.09,5.26,1.07,5.25,4.31,0,3-2.21,4.17-5,4.24-1.17,0-2.34,0-3.5,0H23.68c-1.42,0-2.54-.14-4.2-.2-1.83-.07-3.47-2.53-3.77-4.12-.47-2.43,1.46-4,4-4.21,1.16-.1,2.33,0,3.5,0H257.39c1.81,0,3.63-.07,5.44-.1l25.07,0,6.91,0c7.05,0,14.09.09,21.13.05"/></g></g></svg>