<svg xmlns="http://www.w3.org/2000/svg" viewBox="0 0 126.23 101.05"><defs><style>.cls-1{fill:#33cb56;}.cls-2{fill:#38a611;}.cls-3{fill:#298009;}</style></defs><g id="Layer_2" data-name="Layer 2"><g id="Layer_1-2" data-name="Layer 1"><path class="cls-1" d="M62.73,92.37c-3.48-8.79-1.71-17.51.85-26A129.33,129.33,0,0,1,96.33,11.29C101,6.67,106.12,2.62,112.57.67c6.64-2,11.19.53,12.84,7.29,1.47,6,.79,12-.76,17.82C118,50.7,107.25,72.29,87.7,89.43c-1,.9-2.77,2.08-3.87,2.88a27,27,0,0,1-3.92.1C74.19,92.44,68.46,92.39,62.73,92.37Z"/><path class="cls-2" d="M57.12,92.61l-20.39,0c-8.57-6-16.74-12.51-23.24-20.72A155.7,155.7,0,0,1,2.21,54.79,19.57,19.57,0,0,1,.07,47.28c-.53-4.4,2-7.34,6.23-6.42A44.48,44.48,0,0,1,20,46,96.91,96.91,0,0,1,52,78.17C54.75,82.61,56.77,87.32,57.12,92.61Z"/><path class="cls-3" d="M69.81,92.41q23.91,0,47.82,0h.6c.58,0,2.66,1,2.66,4.26,0,3-2.08,4.28-2.62,4.34a5,5,0,0,1-.67,0H11.93l-.84,0c-.36,0-2.15-2.68-2.15-4.32,0-2,1.63-4.13,2.15-4.2a6.32,6.32,0,0,1,.75-.06H56.9"/></g></g></svg>